<?xml version="1.0" encoding="UTF-8" standalone="no"?>
<!DOCTYPE svg PUBLIC "-//W3C//DTD SVG 1.1//EN"
 "http://www.w3.org/Graphics/SVG/1.1/DTD/svg11.dtd">
<!-- Generated by graphviz version 5.0.0 (20220707.1540)
 -->
<!-- Title: dependencies Pages: 1 -->
<svg width="300pt" height="247pt"
 viewBox="0.00 0.00 300.00 246.80" xmlns="http://www.w3.org/2000/svg" xmlns:xlink="http://www.w3.org/1999/xlink">
<g id="graph0" class="graph" transform="scale(1 1) rotate(0) translate(4 242.8)">
<title>dependencies</title>
<polygon fill="white" stroke="transparent" points="-4,4 -4,-242.8 296,-242.8 296,4 -4,4"/>
<text text-anchor="middle" x="146" y="-8.2" font-family="sans-serif" font-size="14.00">dependencies</text>
<g id="clust1" class="cluster">
<title>cluster_CoreModule</title>
<polygon fill="none" stroke="black" stroke-dasharray="1,5" points="8,-32.8 8,-230.8 284,-230.8 284,-32.8 8,-32.8"/>
</g>
<g id="clust2" class="cluster">
<title>cluster_CoreModule_declarations</title>
<polygon fill="none" stroke="black" points="138,-40.8 138,-92.8 276,-92.8 276,-40.8 138,-40.8"/>
</g>
<g id="clust4" class="cluster">
<title>cluster_CoreModule_imports</title>
<polygon fill="none" stroke="black" points="16,-40.8 16,-92.8 130,-92.8 130,-40.8 16,-40.8"/>
</g>
<g id="clust5" class="cluster">
<title>cluster_CoreModule_exports</title>
<polygon fill="none" stroke="black" points="24,-170.8 24,-222.8 261,-222.8 261,-170.8 24,-170.8"/>
</g>
<!-- HeaderComponent -->
<g id="node1" class="node">
<title>HeaderComponent</title>
<polygon fill="#ffffb3" stroke="black" points="267.75,-84.8 146.25,-84.8 146.25,-48.8 267.75,-48.8 267.75,-84.8"/>
<text text-anchor="middle" x="207" y="-62.6" font-family="Times,serif" font-size="14.00">HeaderComponent</text>
</g>
<!-- CoreModule -->
<g id="node2" class="node">
<title>CoreModule</title>
<polygon fill="#8dd3c7" stroke="black" points="122.27,-149.8 119.27,-153.8 98.27,-153.8 95.27,-149.8 35.73,-149.8 35.73,-113.8 122.27,-113.8 122.27,-149.8"/>
<text text-anchor="middle" x="79" y="-127.6" font-family="Times,serif" font-size="14.00">CoreModule</text>
</g>
<!-- HeaderComponent&#45;&gt;CoreModule -->
<g id="edge1" class="edge">
<title>HeaderComponent&#45;&gt;CoreModule</title>
<path fill="none" stroke="black" d="M199.38,-84.91C199.38,-104.14 199.38,-131.8 199.38,-131.8 199.38,-131.8 132.46,-131.8 132.46,-131.8"/>
<polygon fill="black" stroke="black" points="132.46,-128.3 122.46,-131.8 132.46,-135.3 132.46,-128.3"/>
</g>
<!-- HeaderComponent  -->
<g id="node4" class="node">
<title>HeaderComponent </title>
<polygon fill="#fb8072" stroke="black" points="252.75,-214.8 127.25,-214.8 127.25,-178.8 252.75,-178.8 252.75,-214.8"/>
<text text-anchor="middle" x="190" y="-192.6" font-family="Times,serif" font-size="14.00">HeaderComponent </text>
</g>
<!-- CoreModule&#45;&gt;HeaderComponent  -->
<g id="edge3" class="edge">
<title>CoreModule&#45;&gt;HeaderComponent </title>
<path fill="none" stroke="black" stroke-dasharray="5,2" d="M115.95,-149.91C115.95,-169.14 115.95,-196.8 115.95,-196.8 115.95,-196.8 117.2,-196.8 117.2,-196.8"/>
<polygon fill="black" stroke="black" points="117.2,-200.3 127.2,-196.8 117.2,-193.3 117.2,-200.3"/>
</g>
<!-- UiModule  -->
<g id="node5" class="node">
<title>UiModule </title>
<polygon fill="#fb8072" stroke="black" points="109.55,-214.8 32.45,-214.8 32.45,-178.8 109.55,-178.8 109.55,-214.8"/>
<text text-anchor="middle" x="71" y="-192.6" font-family="Times,serif" font-size="14.00">UiModule </text>
</g>
<!-- CoreModule&#45;&gt;UiModule  -->
<g id="edge4" class="edge">
<title>CoreModule&#45;&gt;UiModule </title>
<path fill="none" stroke="black" stroke-dasharray="5,2" d="M72.57,-149.91C72.57,-149.91 72.57,-168.79 72.57,-168.79"/>
<polygon fill="black" stroke="black" points="69.07,-168.79 72.57,-178.79 76.07,-168.79 69.07,-168.79"/>
</g>
<!-- SharedModule -->
<g id="node3" class="node">
<title>SharedModule</title>
<polygon fill="#8dd3c7" stroke="black" points="122.43,-84.8 119.43,-88.8 98.43,-88.8 95.43,-84.8 23.57,-84.8 23.57,-48.8 122.43,-48.8 122.43,-84.8"/>
<text text-anchor="middle" x="73" y="-62.6" font-family="Times,serif" font-size="14.00">SharedModule</text>
</g>
<!-- SharedModule&#45;&gt;CoreModule -->
<g id="edge2" class="edge">
<title>SharedModule&#45;&gt;CoreModule</title>
<path fill="none" stroke="black" d="M78.92,-84.91C78.92,-84.91 78.92,-103.79 78.92,-103.79"/>
<polygon fill="black" stroke="black" points="75.42,-103.79 78.92,-113.79 82.42,-103.79 75.42,-103.79"/>
</g>
</g>
</svg>
