<?xml version="1.0" encoding="UTF-8" standalone="no"?>
<!DOCTYPE svg PUBLIC "-//W3C//DTD SVG 1.1//EN"
 "http://www.w3.org/Graphics/SVG/1.1/DTD/svg11.dtd">
<!-- Generated by graphviz version 5.0.0 (20220707.1540)
 -->
<!-- Title: dependencies Pages: 1 -->
<svg width="300pt" height="247pt"
 viewBox="0.00 0.00 300.00 246.80" xmlns="http://www.w3.org/2000/svg" xmlns:xlink="http://www.w3.org/1999/xlink">
<g id="graph0" class="graph" transform="scale(1 1) rotate(0) translate(4 242.8)">
<title>dependencies</title>
<polygon fill="white" stroke="transparent" points="-4,4 -4,-242.8 296,-242.8 296,4 -4,4"/>
<text text-anchor="middle" x="146" y="-8.2" font-family="sans-serif" font-size="14.00">dependencies</text>
<g id="clust1" class="cluster">
<title>cluster_CoreModule</title>
<polygon fill="none" stroke="black" stroke-dasharray="1,5" points="8,-32.8 8,-230.8 284,-230.8 284,-32.8 8,-32.8"/>
</g>
<g id="clust5" class="cluster">
<title>cluster_CoreModule_exports</title>
<polygon fill="none" stroke="black" points="27,-170.8 27,-222.8 264,-222.8 264,-170.8 27,-170.8"/>
</g>
<g id="clust4" class="cluster">
<title>cluster_CoreModule_imports</title>
<polygon fill="none" stroke="black" points="162,-40.8 162,-92.8 276,-92.8 276,-40.8 162,-40.8"/>
</g>
<g id="clust2" class="cluster">
<title>cluster_CoreModule_declarations</title>
<polygon fill="none" stroke="black" points="16,-40.8 16,-92.8 154,-92.8 154,-40.8 16,-40.8"/>
</g>
<!-- HeaderComponent -->
<g id="node1" class="node">
<title>HeaderComponent</title>
<polygon fill="#ffffb3" stroke="black" points="145.75,-84.8 24.25,-84.8 24.25,-48.8 145.75,-48.8 145.75,-84.8"/>
<text text-anchor="middle" x="85" y="-62.6" font-family="Times,serif" font-size="14.00">HeaderComponent</text>
</g>
<!-- CoreModule -->
<g id="node2" class="node">
<title>CoreModule</title>
<polygon fill="#8dd3c7" stroke="black" points="128.27,-149.8 125.27,-153.8 104.27,-153.8 101.27,-149.8 41.73,-149.8 41.73,-113.8 128.27,-113.8 128.27,-149.8"/>
<text text-anchor="middle" x="85" y="-127.6" font-family="Times,serif" font-size="14.00">CoreModule</text>
</g>
<!-- HeaderComponent&#45;&gt;CoreModule -->
<g id="edge1" class="edge">
<title>HeaderComponent&#45;&gt;CoreModule</title>
<path fill="none" stroke="black" d="M85,-84.91C85,-84.91 85,-103.79 85,-103.79"/>
<polygon fill="black" stroke="black" points="81.5,-103.79 85,-113.79 88.5,-103.79 81.5,-103.79"/>
</g>
<!-- HeaderComponent  -->
<g id="node4" class="node">
<title>HeaderComponent </title>
<polygon fill="#fb8072" stroke="black" points="255.75,-214.8 130.25,-214.8 130.25,-178.8 255.75,-178.8 255.75,-214.8"/>
<text text-anchor="middle" x="193" y="-192.6" font-family="Times,serif" font-size="14.00">HeaderComponent </text>
</g>
<!-- CoreModule&#45;&gt;HeaderComponent  -->
<g id="edge3" class="edge">
<title>CoreModule&#45;&gt;HeaderComponent </title>
<path fill="none" stroke="black" stroke-dasharray="5,2" d="M120.45,-149.91C120.45,-169.14 120.45,-196.8 120.45,-196.8 120.45,-196.8 121.43,-196.8 121.43,-196.8"/>
<polygon fill="black" stroke="black" points="120.24,-200.3 130.24,-196.8 120.24,-193.3 120.24,-200.3"/>
</g>
<!-- UiModule  -->
<g id="node5" class="node">
<title>UiModule </title>
<polygon fill="#fb8072" stroke="black" points="112.55,-214.8 35.45,-214.8 35.45,-178.8 112.55,-178.8 112.55,-214.8"/>
<text text-anchor="middle" x="74" y="-192.6" font-family="Times,serif" font-size="14.00">UiModule </text>
</g>
<!-- CoreModule&#45;&gt;UiModule  -->
<g id="edge4" class="edge">
<title>CoreModule&#45;&gt;UiModule </title>
<path fill="none" stroke="black" stroke-dasharray="5,2" d="M77.07,-149.91C77.07,-149.91 77.07,-168.79 77.07,-168.79"/>
<polygon fill="black" stroke="black" points="73.57,-168.79 77.07,-178.79 80.57,-168.79 73.57,-168.79"/>
</g>
<!-- SharedModule -->
<g id="node3" class="node">
<title>SharedModule</title>
<polygon fill="#8dd3c7" stroke="black" points="268.43,-84.8 265.43,-88.8 244.43,-88.8 241.43,-84.8 169.57,-84.8 169.57,-48.8 268.43,-48.8 268.43,-84.8"/>
<text text-anchor="middle" x="219" y="-62.6" font-family="Times,serif" font-size="14.00">SharedModule</text>
</g>
<!-- SharedModule&#45;&gt;CoreModule -->
<g id="edge2" class="edge">
<title>SharedModule&#45;&gt;CoreModule</title>
<path fill="none" stroke="black" d="M212.7,-84.91C212.7,-104.14 212.7,-131.8 212.7,-131.8 212.7,-131.8 138.59,-131.8 138.59,-131.8"/>
<polygon fill="black" stroke="black" points="138.59,-128.3 128.59,-131.8 138.59,-135.3 138.59,-128.3"/>
</g>
</g>
</svg>
