<?xml version="1.0" encoding="UTF-8" standalone="no"?>
<!DOCTYPE svg PUBLIC "-//W3C//DTD SVG 1.1//EN"
 "http://www.w3.org/Graphics/SVG/1.1/DTD/svg11.dtd">
<!-- Generated by graphviz version 5.0.0 (20220707.1540)
 -->
<!-- Title: dependencies Pages: 1 -->
<svg width="1115pt" height="247pt"
 viewBox="0.00 0.00 1115.00 246.80" xmlns="http://www.w3.org/2000/svg" xmlns:xlink="http://www.w3.org/1999/xlink">
<g id="graph0" class="graph" transform="scale(1 1) rotate(0) translate(4 242.8)">
<title>dependencies</title>
<polygon fill="white" stroke="transparent" points="-4,4 -4,-242.8 1111,-242.8 1111,4 -4,4"/>
<text text-anchor="middle" x="553.5" y="-8.2" font-family="sans-serif" font-size="14.00">dependencies</text>
<g id="clust1" class="cluster">
<title>cluster_TasksModule</title>
<polygon fill="none" stroke="black" stroke-dasharray="1,5" points="8,-32.8 8,-230.8 1099,-230.8 1099,-32.8 8,-32.8"/>
</g>
<g id="clust2" class="cluster">
<title>cluster_TasksModule_declarations</title>
<polygon fill="none" stroke="black" points="402,-40.8 402,-92.8 1091,-92.8 1091,-40.8 402,-40.8"/>
</g>
<g id="clust8" class="cluster">
<title>cluster_TasksModule_exports</title>
<polygon fill="none" stroke="black" points="127,-170.8 127,-222.8 832,-222.8 832,-170.8 127,-170.8"/>
</g>
<g id="clust7" class="cluster">
<title>cluster_TasksModule_imports</title>
<polygon fill="none" stroke="black" points="16,-40.8 16,-92.8 394,-92.8 394,-40.8 16,-40.8"/>
</g>
<!-- FormTaskComponent -->
<g id="node1" class="node">
<title>FormTaskComponent</title>
<polygon fill="#ffffb3" stroke="black" points="1083.38,-84.8 944.62,-84.8 944.62,-48.8 1083.38,-48.8 1083.38,-84.8"/>
<text text-anchor="middle" x="1014" y="-62.6" font-family="Times,serif" font-size="14.00">FormTaskComponent</text>
</g>
<!-- TasksModule -->
<g id="node5" class="node">
<title>TasksModule</title>
<polygon fill="#8dd3c7" stroke="black" points="537.21,-149.8 534.21,-153.8 513.21,-153.8 510.21,-149.8 444.79,-149.8 444.79,-113.8 537.21,-113.8 537.21,-149.8"/>
<text text-anchor="middle" x="491" y="-127.6" font-family="Times,serif" font-size="14.00">TasksModule</text>
</g>
<!-- FormTaskComponent&#45;&gt;TasksModule -->
<g id="edge1" class="edge">
<title>FormTaskComponent&#45;&gt;TasksModule</title>
<path fill="none" stroke="black" d="M1014,-84.93C1014,-105.37 1014,-135.8 1014,-135.8 1014,-135.8 547.41,-135.8 547.41,-135.8"/>
<polygon fill="black" stroke="black" points="547.41,-132.3 537.41,-135.8 547.41,-139.3 547.41,-132.3"/>
</g>
<!-- PageAddTaskComponent -->
<g id="node2" class="node">
<title>PageAddTaskComponent</title>
<polygon fill="#ffffb3" stroke="black" points="926.87,-84.8 767.13,-84.8 767.13,-48.8 926.87,-48.8 926.87,-84.8"/>
<text text-anchor="middle" x="847" y="-62.6" font-family="Times,serif" font-size="14.00">PageAddTaskComponent</text>
</g>
<!-- PageAddTaskComponent&#45;&gt;TasksModule -->
<g id="edge2" class="edge">
<title>PageAddTaskComponent&#45;&gt;TasksModule</title>
<path fill="none" stroke="black" d="M795.63,-85.07C795.63,-103.36 795.63,-128.8 795.63,-128.8 795.63,-128.8 547.27,-128.8 547.27,-128.8"/>
<polygon fill="black" stroke="black" points="547.27,-125.3 537.27,-128.8 547.27,-132.3 547.27,-125.3"/>
</g>
<!-- PageEditTaskComponent -->
<g id="node3" class="node">
<title>PageEditTaskComponent</title>
<polygon fill="#ffffb3" stroke="black" points="749.59,-84.8 590.41,-84.8 590.41,-48.8 749.59,-48.8 749.59,-84.8"/>
<text text-anchor="middle" x="670" y="-62.6" font-family="Times,serif" font-size="14.00">PageEditTaskComponent</text>
</g>
<!-- PageEditTaskComponent&#45;&gt;TasksModule -->
<g id="edge3" class="edge">
<title>PageEditTaskComponent&#45;&gt;TasksModule</title>
<path fill="none" stroke="black" d="M627.07,-84.81C627.07,-100.85 627.07,-121.8 627.07,-121.8 627.07,-121.8 547.45,-121.8 547.45,-121.8"/>
<polygon fill="black" stroke="black" points="547.45,-118.3 537.45,-121.8 547.45,-125.3 547.45,-118.3"/>
</g>
<!-- PageListTasksComponent -->
<g id="node4" class="node">
<title>PageListTasksComponent</title>
<polygon fill="#ffffb3" stroke="black" points="572.49,-84.8 409.51,-84.8 409.51,-48.8 572.49,-48.8 572.49,-84.8"/>
<text text-anchor="middle" x="491" y="-62.6" font-family="Times,serif" font-size="14.00">PageListTasksComponent</text>
</g>
<!-- PageListTasksComponent&#45;&gt;TasksModule -->
<g id="edge4" class="edge">
<title>PageListTasksComponent&#45;&gt;TasksModule</title>
<path fill="none" stroke="black" d="M491,-84.91C491,-84.91 491,-103.79 491,-103.79"/>
<polygon fill="black" stroke="black" points="487.5,-103.79 491,-113.79 494.5,-103.79 487.5,-103.79"/>
</g>
<!-- FormTaskComponent  -->
<g id="node9" class="node">
<title>FormTaskComponent </title>
<polygon fill="#fb8072" stroke="black" points="824.38,-214.8 681.62,-214.8 681.62,-178.8 824.38,-178.8 824.38,-214.8"/>
<text text-anchor="middle" x="753" y="-192.6" font-family="Times,serif" font-size="14.00">FormTaskComponent </text>
</g>
<!-- TasksModule&#45;&gt;FormTaskComponent  -->
<g id="edge8" class="edge">
<title>TasksModule&#45;&gt;FormTaskComponent </title>
<path fill="none" stroke="black" stroke-dasharray="5,2" d="M537.28,-142.8C603.05,-142.8 715.68,-142.8 715.68,-142.8 715.68,-142.8 715.68,-168.52 715.68,-168.52"/>
<polygon fill="black" stroke="black" points="712.18,-168.52 715.68,-178.52 719.18,-168.52 712.18,-168.52"/>
</g>
<!-- PageAddTaskComponent  -->
<g id="node10" class="node">
<title>PageAddTaskComponent </title>
<polygon fill="#fb8072" stroke="black" points="663.87,-214.8 500.13,-214.8 500.13,-178.8 663.87,-178.8 663.87,-214.8"/>
<text text-anchor="middle" x="582" y="-192.6" font-family="Times,serif" font-size="14.00">PageAddTaskComponent </text>
</g>
<!-- TasksModule&#45;&gt;PageAddTaskComponent  -->
<g id="edge9" class="edge">
<title>TasksModule&#45;&gt;PageAddTaskComponent </title>
<path fill="none" stroke="black" stroke-dasharray="5,2" d="M518.71,-149.91C518.71,-149.91 518.71,-168.79 518.71,-168.79"/>
<polygon fill="black" stroke="black" points="515.21,-168.79 518.71,-178.79 522.21,-168.79 515.21,-168.79"/>
</g>
<!-- PageEditTaskComponent  -->
<g id="node11" class="node">
<title>PageEditTaskComponent </title>
<polygon fill="#fb8072" stroke="black" points="482.09,-214.8 319.91,-214.8 319.91,-178.8 482.09,-178.8 482.09,-214.8"/>
<text text-anchor="middle" x="401" y="-192.6" font-family="Times,serif" font-size="14.00">PageEditTaskComponent </text>
</g>
<!-- TasksModule&#45;&gt;PageEditTaskComponent  -->
<g id="edge10" class="edge">
<title>TasksModule&#45;&gt;PageEditTaskComponent </title>
<path fill="none" stroke="black" stroke-dasharray="5,2" d="M463.59,-149.91C463.59,-149.91 463.59,-168.79 463.59,-168.79"/>
<polygon fill="black" stroke="black" points="460.09,-168.79 463.59,-178.79 467.09,-168.79 460.09,-168.79"/>
</g>
<!-- PageListTasksComponent  -->
<g id="node12" class="node">
<title>PageListTasksComponent </title>
<polygon fill="#fb8072" stroke="black" points="301.49,-214.8 134.51,-214.8 134.51,-178.8 301.49,-178.8 301.49,-214.8"/>
<text text-anchor="middle" x="218" y="-192.6" font-family="Times,serif" font-size="14.00">PageListTasksComponent </text>
</g>
<!-- TasksModule&#45;&gt;PageListTasksComponent  -->
<g id="edge11" class="edge">
<title>TasksModule&#45;&gt;PageListTasksComponent </title>
<path fill="none" stroke="black" stroke-dasharray="5,2" d="M444.74,-142.8C384.59,-142.8 287.14,-142.8 287.14,-142.8 287.14,-142.8 287.14,-168.52 287.14,-168.52"/>
<polygon fill="black" stroke="black" points="283.64,-168.52 287.14,-178.52 290.64,-168.52 283.64,-168.52"/>
</g>
<!-- IconsModule -->
<g id="node6" class="node">
<title>IconsModule</title>
<polygon fill="#8dd3c7" stroke="black" points="385.88,-84.8 382.88,-88.8 361.88,-88.8 358.88,-84.8 296.12,-84.8 296.12,-48.8 385.88,-48.8 385.88,-84.8"/>
<text text-anchor="middle" x="341" y="-62.6" font-family="Times,serif" font-size="14.00">IconsModule</text>
</g>
<!-- IconsModule&#45;&gt;TasksModule -->
<g id="edge5" class="edge">
<title>IconsModule&#45;&gt;TasksModule</title>
<path fill="none" stroke="black" d="M352.82,-84.81C352.82,-100.85 352.82,-121.8 352.82,-121.8 352.82,-121.8 434.6,-121.8 434.6,-121.8"/>
<polygon fill="black" stroke="black" points="434.6,-125.3 444.6,-121.8 434.6,-118.3 434.6,-125.3"/>
</g>
<!-- SharedModule -->
<g id="node7" class="node">
<title>SharedModule</title>
<polygon fill="#8dd3c7" stroke="black" points="278.43,-84.8 275.43,-88.8 254.43,-88.8 251.43,-84.8 179.57,-84.8 179.57,-48.8 278.43,-48.8 278.43,-84.8"/>
<text text-anchor="middle" x="229" y="-62.6" font-family="Times,serif" font-size="14.00">SharedModule</text>
</g>
<!-- SharedModule&#45;&gt;TasksModule -->
<g id="edge6" class="edge">
<title>SharedModule&#45;&gt;TasksModule</title>
<path fill="none" stroke="black" d="M229,-85.07C229,-103.36 229,-128.8 229,-128.8 229,-128.8 434.76,-128.8 434.76,-128.8"/>
<polygon fill="black" stroke="black" points="434.76,-132.3 444.76,-128.8 434.76,-125.3 434.76,-132.3"/>
</g>
<!-- TasksRoutingModule -->
<g id="node8" class="node">
<title>TasksRoutingModule</title>
<polygon fill="#8dd3c7" stroke="black" points="161.83,-84.8 158.83,-88.8 137.83,-88.8 134.83,-84.8 24.17,-84.8 24.17,-48.8 161.83,-48.8 161.83,-84.8"/>
<text text-anchor="middle" x="93" y="-62.6" font-family="Times,serif" font-size="14.00">TasksRoutingModule</text>
</g>
<!-- TasksRoutingModule&#45;&gt;TasksModule -->
<g id="edge7" class="edge">
<title>TasksRoutingModule&#45;&gt;TasksModule</title>
<path fill="none" stroke="black" d="M148.21,-84.93C148.21,-105.37 148.21,-135.8 148.21,-135.8 148.21,-135.8 434.77,-135.8 434.77,-135.8"/>
<polygon fill="black" stroke="black" points="434.77,-139.3 444.77,-135.8 434.77,-132.3 434.77,-139.3"/>
</g>
</g>
</svg>
