<?xml version="1.0" encoding="UTF-8" standalone="no"?>
<!DOCTYPE svg PUBLIC "-//W3C//DTD SVG 1.1//EN"
 "http://www.w3.org/Graphics/SVG/1.1/DTD/svg11.dtd">
<!-- Generated by graphviz version 5.0.0 (20220707.1540)
 -->
<!-- Title: dependencies Pages: 1 -->
<svg width="1115pt" height="247pt"
 viewBox="0.00 0.00 1115.00 246.80" xmlns="http://www.w3.org/2000/svg" xmlns:xlink="http://www.w3.org/1999/xlink">
<g id="graph0" class="graph" transform="scale(1 1) rotate(0) translate(4 242.8)">
<title>dependencies</title>
<polygon fill="white" stroke="transparent" points="-4,4 -4,-242.8 1111,-242.8 1111,4 -4,4"/>
<text text-anchor="middle" x="553.5" y="-8.2" font-family="sans-serif" font-size="14.00">dependencies</text>
<g id="clust1" class="cluster">
<title>cluster_TasksModule</title>
<polygon fill="none" stroke="black" stroke-dasharray="1,5" points="8,-32.8 8,-230.8 1099,-230.8 1099,-32.8 8,-32.8"/>
</g>
<g id="clust8" class="cluster">
<title>cluster_TasksModule_exports</title>
<polygon fill="none" stroke="black" points="264,-170.8 264,-222.8 969,-222.8 969,-170.8 264,-170.8"/>
</g>
<g id="clust7" class="cluster">
<title>cluster_TasksModule_imports</title>
<polygon fill="none" stroke="black" points="713,-40.8 713,-92.8 1091,-92.8 1091,-40.8 713,-40.8"/>
</g>
<g id="clust2" class="cluster">
<title>cluster_TasksModule_declarations</title>
<polygon fill="none" stroke="black" points="16,-40.8 16,-92.8 705,-92.8 705,-40.8 16,-40.8"/>
</g>
<!-- FormTaskComponent -->
<g id="node1" class="node">
<title>FormTaskComponent</title>
<polygon fill="#ffffb3" stroke="black" points="697.38,-84.8 558.62,-84.8 558.62,-48.8 697.38,-48.8 697.38,-84.8"/>
<text text-anchor="middle" x="628" y="-62.6" font-family="Times,serif" font-size="14.00">FormTaskComponent</text>
</g>
<!-- TasksModule -->
<g id="node5" class="node">
<title>TasksModule</title>
<polygon fill="#8dd3c7" stroke="black" points="674.21,-149.8 671.21,-153.8 650.21,-153.8 647.21,-149.8 581.79,-149.8 581.79,-113.8 674.21,-113.8 674.21,-149.8"/>
<text text-anchor="middle" x="628" y="-127.6" font-family="Times,serif" font-size="14.00">TasksModule</text>
</g>
<!-- FormTaskComponent&#45;&gt;TasksModule -->
<g id="edge1" class="edge">
<title>FormTaskComponent&#45;&gt;TasksModule</title>
<path fill="none" stroke="black" d="M628,-84.91C628,-84.91 628,-103.79 628,-103.79"/>
<polygon fill="black" stroke="black" points="624.5,-103.79 628,-113.79 631.5,-103.79 624.5,-103.79"/>
</g>
<!-- PageAddTaskComponent -->
<g id="node2" class="node">
<title>PageAddTaskComponent</title>
<polygon fill="#ffffb3" stroke="black" points="540.87,-84.8 381.13,-84.8 381.13,-48.8 540.87,-48.8 540.87,-84.8"/>
<text text-anchor="middle" x="461" y="-62.6" font-family="Times,serif" font-size="14.00">PageAddTaskComponent</text>
</g>
<!-- PageAddTaskComponent&#45;&gt;TasksModule -->
<g id="edge2" class="edge">
<title>PageAddTaskComponent&#45;&gt;TasksModule</title>
<path fill="none" stroke="black" d="M498.82,-84.81C498.82,-100.85 498.82,-121.8 498.82,-121.8 498.82,-121.8 571.73,-121.8 571.73,-121.8"/>
<polygon fill="black" stroke="black" points="571.73,-125.3 581.73,-121.8 571.73,-118.3 571.73,-125.3"/>
</g>
<!-- PageEditTaskComponent -->
<g id="node3" class="node">
<title>PageEditTaskComponent</title>
<polygon fill="#ffffb3" stroke="black" points="363.59,-84.8 204.41,-84.8 204.41,-48.8 363.59,-48.8 363.59,-84.8"/>
<text text-anchor="middle" x="284" y="-62.6" font-family="Times,serif" font-size="14.00">PageEditTaskComponent</text>
</g>
<!-- PageEditTaskComponent&#45;&gt;TasksModule -->
<g id="edge3" class="edge">
<title>PageEditTaskComponent&#45;&gt;TasksModule</title>
<path fill="none" stroke="black" d="M317.65,-85.07C317.65,-103.36 317.65,-128.8 317.65,-128.8 317.65,-128.8 571.87,-128.8 571.87,-128.8"/>
<polygon fill="black" stroke="black" points="571.87,-132.3 581.87,-128.8 571.87,-125.3 571.87,-132.3"/>
</g>
<!-- PageListTasksComponent -->
<g id="node4" class="node">
<title>PageListTasksComponent</title>
<polygon fill="#ffffb3" stroke="black" points="186.49,-84.8 23.51,-84.8 23.51,-48.8 186.49,-48.8 186.49,-84.8"/>
<text text-anchor="middle" x="105" y="-62.6" font-family="Times,serif" font-size="14.00">PageListTasksComponent</text>
</g>
<!-- PageListTasksComponent&#45;&gt;TasksModule -->
<g id="edge4" class="edge">
<title>PageListTasksComponent&#45;&gt;TasksModule</title>
<path fill="none" stroke="black" d="M105,-84.93C105,-105.37 105,-135.8 105,-135.8 105,-135.8 571.59,-135.8 571.59,-135.8"/>
<polygon fill="black" stroke="black" points="571.59,-139.3 581.59,-135.8 571.59,-132.3 571.59,-139.3"/>
</g>
<!-- FormTaskComponent  -->
<g id="node9" class="node">
<title>FormTaskComponent </title>
<polygon fill="#fb8072" stroke="black" points="961.38,-214.8 818.62,-214.8 818.62,-178.8 961.38,-178.8 961.38,-214.8"/>
<text text-anchor="middle" x="890" y="-192.6" font-family="Times,serif" font-size="14.00">FormTaskComponent </text>
</g>
<!-- TasksModule&#45;&gt;FormTaskComponent  -->
<g id="edge8" class="edge">
<title>TasksModule&#45;&gt;FormTaskComponent </title>
<path fill="none" stroke="black" stroke-dasharray="5,2" d="M674.25,-142.8C736.28,-142.8 838.74,-142.8 838.74,-142.8 838.74,-142.8 838.74,-168.52 838.74,-168.52"/>
<polygon fill="black" stroke="black" points="835.24,-168.52 838.74,-178.52 842.24,-168.52 835.24,-168.52"/>
</g>
<!-- PageAddTaskComponent  -->
<g id="node10" class="node">
<title>PageAddTaskComponent </title>
<polygon fill="#fb8072" stroke="black" points="800.87,-214.8 637.13,-214.8 637.13,-178.8 800.87,-178.8 800.87,-214.8"/>
<text text-anchor="middle" x="719" y="-192.6" font-family="Times,serif" font-size="14.00">PageAddTaskComponent </text>
</g>
<!-- TasksModule&#45;&gt;PageAddTaskComponent  -->
<g id="edge9" class="edge">
<title>TasksModule&#45;&gt;PageAddTaskComponent </title>
<path fill="none" stroke="black" stroke-dasharray="5,2" d="M655.71,-149.91C655.71,-149.91 655.71,-168.79 655.71,-168.79"/>
<polygon fill="black" stroke="black" points="652.21,-168.79 655.71,-178.79 659.21,-168.79 652.21,-168.79"/>
</g>
<!-- PageEditTaskComponent  -->
<g id="node11" class="node">
<title>PageEditTaskComponent </title>
<polygon fill="#fb8072" stroke="black" points="619.09,-214.8 456.91,-214.8 456.91,-178.8 619.09,-178.8 619.09,-214.8"/>
<text text-anchor="middle" x="538" y="-192.6" font-family="Times,serif" font-size="14.00">PageEditTaskComponent </text>
</g>
<!-- TasksModule&#45;&gt;PageEditTaskComponent  -->
<g id="edge10" class="edge">
<title>TasksModule&#45;&gt;PageEditTaskComponent </title>
<path fill="none" stroke="black" stroke-dasharray="5,2" d="M600.59,-149.91C600.59,-149.91 600.59,-168.79 600.59,-168.79"/>
<polygon fill="black" stroke="black" points="597.09,-168.79 600.59,-178.79 604.09,-168.79 597.09,-168.79"/>
</g>
<!-- PageListTasksComponent  -->
<g id="node12" class="node">
<title>PageListTasksComponent </title>
<polygon fill="#fb8072" stroke="black" points="438.49,-214.8 271.51,-214.8 271.51,-178.8 438.49,-178.8 438.49,-214.8"/>
<text text-anchor="middle" x="355" y="-192.6" font-family="Times,serif" font-size="14.00">PageListTasksComponent </text>
</g>
<!-- TasksModule&#45;&gt;PageListTasksComponent  -->
<g id="edge11" class="edge">
<title>TasksModule&#45;&gt;PageListTasksComponent </title>
<path fill="none" stroke="black" stroke-dasharray="5,2" d="M581.69,-142.8C517.6,-142.8 409.65,-142.8 409.65,-142.8 409.65,-142.8 409.65,-168.52 409.65,-168.52"/>
<polygon fill="black" stroke="black" points="406.15,-168.52 409.65,-178.52 413.15,-168.52 406.15,-168.52"/>
</g>
<!-- IconsModule -->
<g id="node6" class="node">
<title>IconsModule</title>
<polygon fill="#8dd3c7" stroke="black" points="1082.88,-84.8 1079.88,-88.8 1058.88,-88.8 1055.88,-84.8 993.12,-84.8 993.12,-48.8 1082.88,-48.8 1082.88,-84.8"/>
<text text-anchor="middle" x="1038" y="-62.6" font-family="Times,serif" font-size="14.00">IconsModule</text>
</g>
<!-- IconsModule&#45;&gt;TasksModule -->
<g id="edge5" class="edge">
<title>IconsModule&#45;&gt;TasksModule</title>
<path fill="none" stroke="black" d="M1038,-84.93C1038,-105.37 1038,-135.8 1038,-135.8 1038,-135.8 684.24,-135.8 684.24,-135.8"/>
<polygon fill="black" stroke="black" points="684.24,-132.3 674.24,-135.8 684.24,-139.3 684.24,-132.3"/>
</g>
<!-- SharedModule -->
<g id="node7" class="node">
<title>SharedModule</title>
<polygon fill="#8dd3c7" stroke="black" points="975.43,-84.8 972.43,-88.8 951.43,-88.8 948.43,-84.8 876.57,-84.8 876.57,-48.8 975.43,-48.8 975.43,-84.8"/>
<text text-anchor="middle" x="926" y="-62.6" font-family="Times,serif" font-size="14.00">SharedModule</text>
</g>
<!-- SharedModule&#45;&gt;TasksModule -->
<g id="edge6" class="edge">
<title>SharedModule&#45;&gt;TasksModule</title>
<path fill="none" stroke="black" d="M918.99,-85.07C918.99,-103.36 918.99,-128.8 918.99,-128.8 918.99,-128.8 684.11,-128.8 684.11,-128.8"/>
<polygon fill="black" stroke="black" points="684.11,-125.3 674.11,-128.8 684.11,-132.3 684.11,-125.3"/>
</g>
<!-- TasksRoutingModule -->
<g id="node8" class="node">
<title>TasksRoutingModule</title>
<polygon fill="#8dd3c7" stroke="black" points="858.83,-84.8 855.83,-88.8 834.83,-88.8 831.83,-84.8 721.17,-84.8 721.17,-48.8 858.83,-48.8 858.83,-84.8"/>
<text text-anchor="middle" x="790" y="-62.6" font-family="Times,serif" font-size="14.00">TasksRoutingModule</text>
</g>
<!-- TasksRoutingModule&#45;&gt;TasksModule -->
<g id="edge7" class="edge">
<title>TasksRoutingModule&#45;&gt;TasksModule</title>
<path fill="none" stroke="black" d="M761.01,-84.81C761.01,-100.85 761.01,-121.8 761.01,-121.8 761.01,-121.8 684.15,-121.8 684.15,-121.8"/>
<polygon fill="black" stroke="black" points="684.15,-118.3 674.15,-121.8 684.15,-125.3 684.15,-118.3"/>
</g>
</g>
</svg>
