<?xml version="1.0" encoding="UTF-8" standalone="no"?>
<!DOCTYPE svg PUBLIC "-//W3C//DTD SVG 1.1//EN"
 "http://www.w3.org/Graphics/SVG/1.1/DTD/svg11.dtd">
<!-- Generated by graphviz version 5.0.0 (20220707.1540)
 -->
<!-- Title: dependencies Pages: 1 -->
<svg width="558pt" height="247pt"
 viewBox="0.00 0.00 558.00 246.80" xmlns="http://www.w3.org/2000/svg" xmlns:xlink="http://www.w3.org/1999/xlink">
<g id="graph0" class="graph" transform="scale(1 1) rotate(0) translate(4 242.8)">
<title>dependencies</title>
<polygon fill="white" stroke="transparent" points="-4,4 -4,-242.8 554,-242.8 554,4 -4,4"/>
<text text-anchor="middle" x="275" y="-8.2" font-family="sans-serif" font-size="14.00">dependencies</text>
<g id="clust1" class="cluster">
<title>cluster_SharedModule</title>
<polygon fill="none" stroke="black" stroke-dasharray="1,5" points="8,-32.8 8,-230.8 542,-230.8 542,-32.8 8,-32.8"/>
</g>
<g id="clust8" class="cluster">
<title>cluster_SharedModule_exports</title>
<polygon fill="none" stroke="black" points="16,-170.8 16,-222.8 534,-222.8 534,-170.8 16,-170.8"/>
</g>
<g id="clust2" class="cluster">
<title>cluster_SharedModule_declarations</title>
<polygon fill="none" stroke="black" points="25,-40.8 25,-92.8 527,-92.8 527,-40.8 25,-40.8"/>
</g>
<!-- BtnComponent -->
<g id="node1" class="node">
<title>BtnComponent</title>
<polygon fill="#ffffb3" stroke="black" points="518.56,-84.8 417.44,-84.8 417.44,-48.8 518.56,-48.8 518.56,-84.8"/>
<text text-anchor="middle" x="468" y="-62.6" font-family="Times,serif" font-size="14.00">BtnComponent</text>
</g>
<!-- SharedModule -->
<g id="node5" class="node">
<title>SharedModule</title>
<polygon fill="#8dd3c7" stroke="black" points="262.43,-149.8 259.43,-153.8 238.43,-153.8 235.43,-149.8 163.57,-149.8 163.57,-113.8 262.43,-113.8 262.43,-149.8"/>
<text text-anchor="middle" x="213" y="-127.6" font-family="Times,serif" font-size="14.00">SharedModule</text>
</g>
<!-- BtnComponent&#45;&gt;SharedModule -->
<g id="edge1" class="edge">
<title>BtnComponent&#45;&gt;SharedModule</title>
<path fill="none" stroke="black" d="M486.01,-85.07C486.01,-103.36 486.01,-128.8 486.01,-128.8 486.01,-128.8 272.44,-128.8 272.44,-128.8"/>
<polygon fill="black" stroke="black" points="272.44,-125.3 262.44,-128.8 272.44,-132.3 272.44,-125.3"/>
</g>
<!-- CardComponent -->
<g id="node2" class="node">
<title>CardComponent</title>
<polygon fill="#ffffb3" stroke="black" points="399.05,-84.8 290.95,-84.8 290.95,-48.8 399.05,-48.8 399.05,-84.8"/>
<text text-anchor="middle" x="345" y="-62.6" font-family="Times,serif" font-size="14.00">CardComponent</text>
</g>
<!-- CardComponent&#45;&gt;SharedModule -->
<g id="edge2" class="edge">
<title>CardComponent&#45;&gt;SharedModule</title>
<path fill="none" stroke="black" d="M363.09,-84.81C363.09,-100.85 363.09,-121.8 363.09,-121.8 363.09,-121.8 272.56,-121.8 272.56,-121.8"/>
<polygon fill="black" stroke="black" points="272.56,-118.3 262.56,-121.8 272.56,-125.3 272.56,-118.3"/>
</g>
<!-- ColumnComponent -->
<g id="node3" class="node">
<title>ColumnComponent</title>
<polygon fill="#ffffb3" stroke="black" points="273.45,-84.8 146.55,-84.8 146.55,-48.8 273.45,-48.8 273.45,-84.8"/>
<text text-anchor="middle" x="210" y="-62.6" font-family="Times,serif" font-size="14.00">ColumnComponent</text>
</g>
<!-- ColumnComponent&#45;&gt;SharedModule -->
<g id="edge3" class="edge">
<title>ColumnComponent&#45;&gt;SharedModule</title>
<path fill="none" stroke="black" d="M213,-84.91C213,-84.91 213,-103.79 213,-103.79"/>
<polygon fill="black" stroke="black" points="209.5,-103.79 213,-113.79 216.5,-103.79 209.5,-103.79"/>
</g>
<!-- StateDirective -->
<g id="node4" class="node">
<title>StateDirective</title>
<polygon fill="#ffffb3" stroke="black" points="129.08,-84.8 32.92,-84.8 32.92,-48.8 129.08,-48.8 129.08,-84.8"/>
<text text-anchor="middle" x="81" y="-62.6" font-family="Times,serif" font-size="14.00">StateDirective</text>
</g>
<!-- StateDirective&#45;&gt;SharedModule -->
<g id="edge4" class="edge">
<title>StateDirective&#45;&gt;SharedModule</title>
<path fill="none" stroke="black" d="M93.51,-84.82C93.51,-102.17 93.51,-125.8 93.51,-125.8 93.51,-125.8 153.71,-125.8 153.71,-125.8"/>
<polygon fill="black" stroke="black" points="153.71,-129.3 163.71,-125.8 153.71,-122.3 153.71,-129.3"/>
</g>
<!-- BtnComponent  -->
<g id="node6" class="node">
<title>BtnComponent </title>
<polygon fill="#fb8072" stroke="black" points="525.56,-214.8 420.44,-214.8 420.44,-178.8 525.56,-178.8 525.56,-214.8"/>
<text text-anchor="middle" x="473" y="-192.6" font-family="Times,serif" font-size="14.00">BtnComponent </text>
</g>
<!-- SharedModule&#45;&gt;BtnComponent  -->
<g id="edge5" class="edge">
<title>SharedModule&#45;&gt;BtnComponent </title>
<path fill="none" stroke="black" stroke-dasharray="5,2" d="M262.49,-135.8C332.81,-135.8 453.24,-135.8 453.24,-135.8 453.24,-135.8 453.24,-168.5 453.24,-168.5"/>
<polygon fill="black" stroke="black" points="449.74,-168.5 453.24,-178.5 456.74,-168.5 449.74,-168.5"/>
</g>
<!-- CardComponent  -->
<g id="node7" class="node">
<title>CardComponent </title>
<polygon fill="#fb8072" stroke="black" points="402.04,-214.8 289.96,-214.8 289.96,-178.8 402.04,-178.8 402.04,-214.8"/>
<text text-anchor="middle" x="346" y="-192.6" font-family="Times,serif" font-size="14.00">CardComponent </text>
</g>
<!-- SharedModule&#45;&gt;CardComponent  -->
<g id="edge6" class="edge">
<title>SharedModule&#45;&gt;CardComponent </title>
<path fill="none" stroke="black" stroke-dasharray="5,2" d="M262.3,-142.8C293.09,-142.8 326.91,-142.8 326.91,-142.8 326.91,-142.8 326.91,-168.52 326.91,-168.52"/>
<polygon fill="black" stroke="black" points="323.41,-168.52 326.91,-178.52 330.41,-168.52 323.41,-168.52"/>
</g>
<!-- ColumnComponent  -->
<g id="node8" class="node">
<title>ColumnComponent </title>
<polygon fill="#fb8072" stroke="black" points="271.95,-214.8 142.05,-214.8 142.05,-178.8 271.95,-178.8 271.95,-214.8"/>
<text text-anchor="middle" x="207" y="-192.6" font-family="Times,serif" font-size="14.00">ColumnComponent </text>
</g>
<!-- SharedModule&#45;&gt;ColumnComponent  -->
<g id="edge7" class="edge">
<title>SharedModule&#45;&gt;ColumnComponent </title>
<path fill="none" stroke="black" stroke-dasharray="5,2" d="M213,-149.91C213,-149.91 213,-168.79 213,-168.79"/>
<polygon fill="black" stroke="black" points="209.5,-168.79 213,-178.79 216.5,-168.79 209.5,-168.79"/>
</g>
<!-- StateDirective  -->
<g id="node9" class="node">
<title>StateDirective </title>
<polygon fill="#fb8072" stroke="black" points="123.58,-214.8 24.42,-214.8 24.42,-178.8 123.58,-178.8 123.58,-214.8"/>
<text text-anchor="middle" x="74" y="-192.6" font-family="Times,serif" font-size="14.00">StateDirective </text>
</g>
<!-- SharedModule&#45;&gt;StateDirective  -->
<g id="edge8" class="edge">
<title>SharedModule&#45;&gt;StateDirective </title>
<path fill="none" stroke="black" stroke-dasharray="5,2" d="M163.55,-137.8C119.92,-137.8 63.24,-137.8 63.24,-137.8 63.24,-137.8 63.24,-168.78 63.24,-168.78"/>
<polygon fill="black" stroke="black" points="59.74,-168.78 63.24,-178.78 66.74,-168.78 59.74,-168.78"/>
</g>
</g>
</svg>
