<?xml version="1.0" encoding="UTF-8" standalone="no"?>
<!DOCTYPE svg PUBLIC "-//W3C//DTD SVG 1.1//EN"
 "http://www.w3.org/Graphics/SVG/1.1/DTD/svg11.dtd">
<!-- Generated by graphviz version 5.0.0 (20220707.1540)
 -->
<!-- Title: dependencies Pages: 1 -->
<svg width="400pt" height="247pt"
 viewBox="0.00 0.00 400.00 246.80" xmlns="http://www.w3.org/2000/svg" xmlns:xlink="http://www.w3.org/1999/xlink">
<g id="graph0" class="graph" transform="scale(1 1) rotate(0) translate(4 242.8)">
<title>dependencies</title>
<polygon fill="white" stroke="transparent" points="-4,4 -4,-242.8 396,-242.8 396,4 -4,4"/>
<text text-anchor="middle" x="196" y="-8.2" font-family="sans-serif" font-size="14.00">dependencies</text>
<g id="clust1" class="cluster">
<title>cluster_IconsModule</title>
<polygon fill="none" stroke="black" stroke-dasharray="1,5" points="8,-32.8 8,-230.8 384,-230.8 384,-32.8 8,-32.8"/>
</g>
<g id="clust6" class="cluster">
<title>cluster_IconsModule_exports</title>
<polygon fill="none" stroke="black" points="16,-170.8 16,-222.8 376,-222.8 376,-170.8 16,-170.8"/>
</g>
<g id="clust2" class="cluster">
<title>cluster_IconsModule_declarations</title>
<polygon fill="none" stroke="black" points="20,-40.8 20,-92.8 372,-92.8 372,-40.8 20,-40.8"/>
</g>
<!-- IconChevronDownComponent -->
<g id="node1" class="node">
<title>IconChevronDownComponent</title>
<polygon fill="#ffffb3" stroke="black" points="364.14,-84.8 175.86,-84.8 175.86,-48.8 364.14,-48.8 364.14,-84.8"/>
<text text-anchor="middle" x="270" y="-62.6" font-family="Times,serif" font-size="14.00">IconChevronDownComponent</text>
</g>
<!-- IconsModule -->
<g id="node3" class="node">
<title>IconsModule</title>
<polygon fill="#8dd3c7" stroke="black" points="138.88,-149.8 135.88,-153.8 114.88,-153.8 111.88,-149.8 49.12,-149.8 49.12,-113.8 138.88,-113.8 138.88,-149.8"/>
<text text-anchor="middle" x="94" y="-127.6" font-family="Times,serif" font-size="14.00">IconsModule</text>
</g>
<!-- IconChevronDownComponent&#45;&gt;IconsModule -->
<g id="edge1" class="edge">
<title>IconChevronDownComponent&#45;&gt;IconsModule</title>
<path fill="none" stroke="black" d="M301.52,-84.82C301.52,-102.17 301.52,-125.8 301.52,-125.8 301.52,-125.8 149.03,-125.8 149.03,-125.8"/>
<polygon fill="black" stroke="black" points="149.03,-122.3 139.03,-125.8 149.03,-129.3 149.03,-122.3"/>
</g>
<!-- IconEditComponent -->
<g id="node2" class="node">
<title>IconEditComponent</title>
<polygon fill="#ffffb3" stroke="black" points="157.54,-84.8 28.46,-84.8 28.46,-48.8 157.54,-48.8 157.54,-84.8"/>
<text text-anchor="middle" x="93" y="-62.6" font-family="Times,serif" font-size="14.00">IconEditComponent</text>
</g>
<!-- IconEditComponent&#45;&gt;IconsModule -->
<g id="edge2" class="edge">
<title>IconEditComponent&#45;&gt;IconsModule</title>
<path fill="none" stroke="black" d="M94,-84.91C94,-84.91 94,-103.79 94,-103.79"/>
<polygon fill="black" stroke="black" points="90.5,-103.79 94,-113.79 97.5,-103.79 90.5,-103.79"/>
</g>
<!-- IconChevronDownComponent  -->
<g id="node4" class="node">
<title>IconChevronDownComponent </title>
<polygon fill="#fb8072" stroke="black" points="368.14,-214.8 175.86,-214.8 175.86,-178.8 368.14,-178.8 368.14,-214.8"/>
<text text-anchor="middle" x="272" y="-192.6" font-family="Times,serif" font-size="14.00">IconChevronDownComponent </text>
</g>
<!-- IconsModule&#45;&gt;IconChevronDownComponent  -->
<g id="edge3" class="edge">
<title>IconsModule&#45;&gt;IconChevronDownComponent </title>
<path fill="none" stroke="black" stroke-dasharray="5,2" d="M139,-137.8C181.48,-137.8 238.73,-137.8 238.73,-137.8 238.73,-137.8 238.73,-168.78 238.73,-168.78"/>
<polygon fill="black" stroke="black" points="235.23,-168.78 238.73,-178.78 242.23,-168.78 235.23,-168.78"/>
</g>
<!-- IconEditComponent  -->
<g id="node5" class="node">
<title>IconEditComponent </title>
<polygon fill="#fb8072" stroke="black" points="157.54,-214.8 24.46,-214.8 24.46,-178.8 157.54,-178.8 157.54,-214.8"/>
<text text-anchor="middle" x="91" y="-192.6" font-family="Times,serif" font-size="14.00">IconEditComponent </text>
</g>
<!-- IconsModule&#45;&gt;IconEditComponent  -->
<g id="edge4" class="edge">
<title>IconsModule&#45;&gt;IconEditComponent </title>
<path fill="none" stroke="black" stroke-dasharray="5,2" d="M94,-149.91C94,-149.91 94,-168.79 94,-168.79"/>
<polygon fill="black" stroke="black" points="90.5,-168.79 94,-178.79 97.5,-168.79 90.5,-168.79"/>
</g>
</g>
</svg>
