<?xml version="1.0" encoding="UTF-8" standalone="no"?>
<!DOCTYPE svg PUBLIC "-//W3C//DTD SVG 1.1//EN"
 "http://www.w3.org/Graphics/SVG/1.1/DTD/svg11.dtd">
<!-- Generated by graphviz version 5.0.0 (20220707.1540)
 -->
<!-- Title: dependencies Pages: 1 -->
<svg width="564pt" height="247pt"
 viewBox="0.00 0.00 564.00 246.80" xmlns="http://www.w3.org/2000/svg" xmlns:xlink="http://www.w3.org/1999/xlink">
<g id="graph0" class="graph" transform="scale(1 1) rotate(0) translate(4 242.8)">
<title>dependencies</title>
<polygon fill="white" stroke="transparent" points="-4,4 -4,-242.8 560,-242.8 560,4 -4,4"/>
<text text-anchor="middle" x="278" y="-8.2" font-family="sans-serif" font-size="14.00">dependencies</text>
<g id="clust1" class="cluster">
<title>cluster_IconsModule</title>
<polygon fill="none" stroke="black" stroke-dasharray="1,5" points="8,-32.8 8,-230.8 548,-230.8 548,-32.8 8,-32.8"/>
</g>
<g id="clust2" class="cluster">
<title>cluster_IconsModule_declarations</title>
<polygon fill="none" stroke="black" points="22,-40.8 22,-92.8 535,-92.8 535,-40.8 22,-40.8"/>
</g>
<g id="clust7" class="cluster">
<title>cluster_IconsModule_exports</title>
<polygon fill="none" stroke="black" points="16,-170.8 16,-222.8 540,-222.8 540,-170.8 16,-170.8"/>
</g>
<!-- IconChevronDownComponent -->
<g id="node1" class="node">
<title>IconChevronDownComponent</title>
<polygon fill="#ffffb3" stroke="black" points="527.14,-84.8 338.86,-84.8 338.86,-48.8 527.14,-48.8 527.14,-84.8"/>
<text text-anchor="middle" x="433" y="-62.6" font-family="Times,serif" font-size="14.00">IconChevronDownComponent</text>
</g>
<!-- IconsModule -->
<g id="node4" class="node">
<title>IconsModule</title>
<polygon fill="#8dd3c7" stroke="black" points="293.88,-149.8 290.88,-153.8 269.88,-153.8 266.88,-149.8 204.12,-149.8 204.12,-113.8 293.88,-113.8 293.88,-149.8"/>
<text text-anchor="middle" x="249" y="-127.6" font-family="Times,serif" font-size="14.00">IconsModule</text>
</g>
<!-- IconChevronDownComponent&#45;&gt;IconsModule -->
<g id="edge1" class="edge">
<title>IconChevronDownComponent&#45;&gt;IconsModule</title>
<path fill="none" stroke="black" d="M464.86,-84.82C464.86,-102.17 464.86,-125.8 464.86,-125.8 464.86,-125.8 303.99,-125.8 303.99,-125.8"/>
<polygon fill="black" stroke="black" points="303.99,-122.3 293.99,-125.8 303.99,-129.3 303.99,-122.3"/>
</g>
<!-- IconDeleteComponent -->
<g id="node2" class="node">
<title>IconDeleteComponent</title>
<polygon fill="#ffffb3" stroke="black" points="320.24,-84.8 177.76,-84.8 177.76,-48.8 320.24,-48.8 320.24,-84.8"/>
<text text-anchor="middle" x="249" y="-62.6" font-family="Times,serif" font-size="14.00">IconDeleteComponent</text>
</g>
<!-- IconDeleteComponent&#45;&gt;IconsModule -->
<g id="edge2" class="edge">
<title>IconDeleteComponent&#45;&gt;IconsModule</title>
<path fill="none" stroke="black" d="M249,-84.91C249,-84.91 249,-103.79 249,-103.79"/>
<polygon fill="black" stroke="black" points="245.5,-103.79 249,-113.79 252.5,-103.79 245.5,-103.79"/>
</g>
<!-- IconEditComponent -->
<g id="node3" class="node">
<title>IconEditComponent</title>
<polygon fill="#ffffb3" stroke="black" points="159.54,-84.8 30.46,-84.8 30.46,-48.8 159.54,-48.8 159.54,-84.8"/>
<text text-anchor="middle" x="95" y="-62.6" font-family="Times,serif" font-size="14.00">IconEditComponent</text>
</g>
<!-- IconEditComponent&#45;&gt;IconsModule -->
<g id="edge3" class="edge">
<title>IconEditComponent&#45;&gt;IconsModule</title>
<path fill="none" stroke="black" d="M115.09,-84.82C115.09,-102.17 115.09,-125.8 115.09,-125.8 115.09,-125.8 194.04,-125.8 194.04,-125.8"/>
<polygon fill="black" stroke="black" points="194.04,-129.3 204.04,-125.8 194.04,-122.3 194.04,-129.3"/>
</g>
<!-- IconChevronDownComponent  -->
<g id="node5" class="node">
<title>IconChevronDownComponent </title>
<polygon fill="#fb8072" stroke="black" points="532.14,-214.8 339.86,-214.8 339.86,-178.8 532.14,-178.8 532.14,-214.8"/>
<text text-anchor="middle" x="436" y="-192.6" font-family="Times,serif" font-size="14.00">IconChevronDownComponent </text>
</g>
<!-- IconsModule&#45;&gt;IconChevronDownComponent  -->
<g id="edge4" class="edge">
<title>IconsModule&#45;&gt;IconChevronDownComponent </title>
<path fill="none" stroke="black" stroke-dasharray="5,2" d="M294.19,-137.8C339.44,-137.8 402.39,-137.8 402.39,-137.8 402.39,-137.8 402.39,-168.78 402.39,-168.78"/>
<polygon fill="black" stroke="black" points="398.89,-168.78 402.39,-178.78 405.89,-168.78 398.89,-168.78"/>
</g>
<!-- IconDeleteComponent  -->
<g id="node6" class="node">
<title>IconDeleteComponent </title>
<polygon fill="#fb8072" stroke="black" points="322.24,-214.8 175.76,-214.8 175.76,-178.8 322.24,-178.8 322.24,-214.8"/>
<text text-anchor="middle" x="249" y="-192.6" font-family="Times,serif" font-size="14.00">IconDeleteComponent </text>
</g>
<!-- IconsModule&#45;&gt;IconDeleteComponent  -->
<g id="edge5" class="edge">
<title>IconsModule&#45;&gt;IconDeleteComponent </title>
<path fill="none" stroke="black" stroke-dasharray="5,2" d="M249,-149.91C249,-149.91 249,-168.79 249,-168.79"/>
<polygon fill="black" stroke="black" points="245.5,-168.79 249,-178.79 252.5,-168.79 245.5,-168.79"/>
</g>
<!-- IconEditComponent  -->
<g id="node7" class="node">
<title>IconEditComponent </title>
<polygon fill="#fb8072" stroke="black" points="157.54,-214.8 24.46,-214.8 24.46,-178.8 157.54,-178.8 157.54,-214.8"/>
<text text-anchor="middle" x="91" y="-192.6" font-family="Times,serif" font-size="14.00">IconEditComponent </text>
</g>
<!-- IconsModule&#45;&gt;IconEditComponent  -->
<g id="edge6" class="edge">
<title>IconsModule&#45;&gt;IconEditComponent </title>
<path fill="none" stroke="black" stroke-dasharray="5,2" d="M204.05,-137.8C151.8,-137.8 72.66,-137.8 72.66,-137.8 72.66,-137.8 72.66,-168.78 72.66,-168.78"/>
<polygon fill="black" stroke="black" points="69.16,-168.78 72.66,-178.78 76.16,-168.78 69.16,-168.78"/>
</g>
</g>
</svg>
