<?xml version="1.0" encoding="UTF-8" standalone="no"?>
<!DOCTYPE svg PUBLIC "-//W3C//DTD SVG 1.1//EN"
 "http://www.w3.org/Graphics/SVG/1.1/DTD/svg11.dtd">
<!-- Generated by graphviz version 5.0.0 (20220707.1540)
 -->
<!-- Title: dependencies Pages: 1 -->
<svg width="3286pt" height="329pt"
 viewBox="0.00 0.00 3286.00 328.80" xmlns="http://www.w3.org/2000/svg" xmlns:xlink="http://www.w3.org/1999/xlink">
<g id="graph0" class="graph" transform="scale(1 1) rotate(0) translate(4 324.8)">
<title>dependencies</title>
<polygon fill="white" stroke="transparent" points="-4,4 -4,-324.8 3282,-324.8 3282,4 -4,4"/>
<text text-anchor="middle" x="1639" y="-8.2" font-family="sans-serif" font-size="14.00">dependencies</text>
<g id="clust1" class="cluster">
<title>cluster_AppModule</title>
<polygon fill="none" stroke="black" stroke-dasharray="1,5" points="8,-32.8 8,-244.8 403,-244.8 403,-32.8 8,-32.8"/>
</g>
<g id="clust2" class="cluster">
<title>cluster_AppModule_declarations</title>
<polygon fill="none" stroke="black" points="16,-40.8 16,-92.8 138,-92.8 138,-40.8 16,-40.8"/>
</g>
<g id="clust4" class="cluster">
<title>cluster_AppModule_imports</title>
<polygon fill="none" stroke="black" points="146,-40.8 146,-92.8 395,-92.8 395,-40.8 146,-40.8"/>
</g>
<g id="clust6" class="cluster">
<title>cluster_AppModule_bootstrap</title>
<polygon fill="none" stroke="black" points="156,-184.8 156,-236.8 280,-236.8 280,-184.8 156,-184.8"/>
</g>
<g id="clust14" class="cluster">
<title>cluster_CoreModule</title>
<polygon fill="none" stroke="black" stroke-dasharray="1,5" points="439,-100.8 439,-168.8 960,-168.8 960,-100.8 439,-100.8"/>
</g>
<g id="clust15" class="cluster">
<title>cluster_CoreModule_declarations</title>
<polygon fill="none" stroke="black" points="814,-108.8 814,-160.8 952,-160.8 952,-108.8 814,-108.8"/>
</g>
<g id="clust17" class="cluster">
<title>cluster_CoreModule_imports</title>
<polygon fill="none" stroke="black" points="692,-108.8 692,-160.8 806,-160.8 806,-108.8 692,-108.8"/>
</g>
<g id="clust18" class="cluster">
<title>cluster_CoreModule_exports</title>
<polygon fill="none" stroke="black" points="447,-108.8 447,-160.8 684,-160.8 684,-108.8 447,-108.8"/>
</g>
<g id="clust21" class="cluster">
<title>cluster_IconsModule</title>
<polygon fill="none" stroke="black" stroke-dasharray="1,5" points="2338,-32.8 2338,-244.8 2714,-244.8 2714,-32.8 2338,-32.8"/>
</g>
<g id="clust22" class="cluster">
<title>cluster_IconsModule_declarations</title>
<polygon fill="none" stroke="black" points="2347,-40.8 2347,-92.8 2699,-92.8 2699,-40.8 2347,-40.8"/>
</g>
<g id="clust26" class="cluster">
<title>cluster_IconsModule_exports</title>
<polygon fill="none" stroke="black" points="2346,-184.8 2346,-236.8 2706,-236.8 2706,-184.8 2346,-184.8"/>
</g>
<g id="clust29" class="cluster">
<title>cluster_PageNotFoundModule</title>
<polygon fill="none" stroke="black" stroke-dasharray="1,5" points="2722,-32.8 2722,-160.8 3132,-160.8 3132,-32.8 2722,-32.8"/>
</g>
<g id="clust30" class="cluster">
<title>cluster_PageNotFoundModule_declarations</title>
<polygon fill="none" stroke="black" points="2942,-40.8 2942,-92.8 3124,-92.8 3124,-40.8 2942,-40.8"/>
</g>
<g id="clust32" class="cluster">
<title>cluster_PageNotFoundModule_imports</title>
<polygon fill="none" stroke="black" points="2730,-40.8 2730,-92.8 2934,-92.8 2934,-40.8 2730,-40.8"/>
</g>
<g id="clust42" class="cluster">
<title>cluster_SharedModule</title>
<polygon fill="none" stroke="black" stroke-dasharray="1,5" points="411,-176.8 411,-244.8 1455,-244.8 1455,-176.8 411,-176.8"/>
</g>
<g id="clust43" class="cluster">
<title>cluster_SharedModule_declarations</title>
<polygon fill="none" stroke="black" points="945,-184.8 945,-236.8 1447,-236.8 1447,-184.8 945,-184.8"/>
</g>
<g id="clust49" class="cluster">
<title>cluster_SharedModule_exports</title>
<polygon fill="none" stroke="black" points="419,-184.8 419,-236.8 937,-236.8 937,-184.8 419,-184.8"/>
</g>
<g id="clust52" class="cluster">
<title>cluster_TasksModule</title>
<polygon fill="none" stroke="black" stroke-dasharray="1,5" points="1463,-100.8 1463,-312.8 2330,-312.8 2330,-100.8 1463,-100.8"/>
</g>
<g id="clust53" class="cluster">
<title>cluster_TasksModule_declarations</title>
<polygon fill="none" stroke="black" points="1633,-108.8 1633,-160.8 2322,-160.8 2322,-108.8 1633,-108.8"/>
</g>
<g id="clust58" class="cluster">
<title>cluster_TasksModule_imports</title>
<polygon fill="none" stroke="black" points="1471,-108.8 1471,-160.8 1625,-160.8 1625,-108.8 1471,-108.8"/>
</g>
<g id="clust59" class="cluster">
<title>cluster_TasksModule_exports</title>
<polygon fill="none" stroke="black" points="1544,-252.8 1544,-304.8 2249,-304.8 2249,-252.8 1544,-252.8"/>
</g>
<g id="clust68" class="cluster">
<title>cluster_UiModule</title>
<polygon fill="none" stroke="black" stroke-dasharray="1,5" points="3140,-32.8 3140,-244.8 3270,-244.8 3270,-32.8 3140,-32.8"/>
</g>
<g id="clust69" class="cluster">
<title>cluster_UiModule_declarations</title>
<polygon fill="none" stroke="black" points="3149,-40.8 3149,-92.8 3261,-92.8 3261,-40.8 3149,-40.8"/>
</g>
<g id="clust72" class="cluster">
<title>cluster_UiModule_exports</title>
<polygon fill="none" stroke="black" points="3148,-184.8 3148,-236.8 3262,-236.8 3262,-184.8 3148,-184.8"/>
</g>
<!-- AppComponent -->
<g id="node1" class="node">
<title>AppComponent</title>
<polygon fill="#ffffb3" stroke="black" points="129.94,-84.8 24.06,-84.8 24.06,-48.8 129.94,-48.8 129.94,-84.8"/>
<text text-anchor="middle" x="77" y="-62.6" font-family="Times,serif" font-size="14.00">AppComponent</text>
</g>
<!-- AppModule -->
<g id="node2" class="node">
<title>AppModule</title>
<polygon fill="#8dd3c7" stroke="black" points="259.66,-152.8 256.66,-156.8 235.66,-156.8 232.66,-152.8 176.34,-152.8 176.34,-116.8 259.66,-116.8 259.66,-152.8"/>
<text text-anchor="middle" x="218" y="-130.6" font-family="Times,serif" font-size="14.00">AppModule</text>
</g>
<!-- AppComponent&#45;&gt;AppModule -->
<g id="edge1" class="edge">
<title>AppComponent&#45;&gt;AppModule</title>
<path fill="none" stroke="black" d="M77,-85.02C77,-105.17 77,-134.8 77,-134.8 77,-134.8 166.08,-134.8 166.08,-134.8"/>
<polygon fill="black" stroke="black" points="166.08,-138.3 176.08,-134.8 166.08,-131.3 166.08,-138.3"/>
</g>
<!-- AppComponent  -->
<g id="node5" class="node">
<title>AppComponent </title>
<polygon fill="#80b1d3" stroke="black" points="272.44,-228.8 163.56,-228.8 163.56,-192.8 272.44,-192.8 272.44,-228.8"/>
<text text-anchor="middle" x="218" y="-206.6" font-family="Times,serif" font-size="14.00">AppComponent </text>
</g>
<!-- AppModule&#45;&gt;AppComponent  -->
<g id="edge4" class="edge">
<title>AppModule&#45;&gt;AppComponent </title>
<path fill="none" stroke="black" stroke-dasharray="1,5" d="M218,-152.81C218,-152.81 218,-182.65 218,-182.65"/>
<polygon fill="black" stroke="black" points="214.5,-182.65 218,-192.65 221.5,-182.65 214.5,-182.65"/>
</g>
<!-- AppRoutingModule -->
<g id="node3" class="node">
<title>AppRoutingModule</title>
<polygon fill="#8dd3c7" stroke="black" points="282.28,-84.8 279.28,-88.8 258.28,-88.8 255.28,-84.8 153.72,-84.8 153.72,-48.8 282.28,-48.8 282.28,-84.8"/>
<text text-anchor="middle" x="218" y="-62.6" font-family="Times,serif" font-size="14.00">AppRoutingModule</text>
</g>
<!-- AppRoutingModule&#45;&gt;AppModule -->
<g id="edge2" class="edge">
<title>AppRoutingModule&#45;&gt;AppModule</title>
<path fill="none" stroke="black" d="M218,-85.02C218,-85.02 218,-106.53 218,-106.53"/>
<polygon fill="black" stroke="black" points="214.5,-106.53 218,-116.53 221.5,-106.53 214.5,-106.53"/>
</g>
<!-- CoreModule -->
<g id="node4" class="node">
<title>CoreModule</title>
<polygon fill="#8dd3c7" stroke="black" points="387.27,-84.8 384.27,-88.8 363.27,-88.8 360.27,-84.8 300.73,-84.8 300.73,-48.8 387.27,-48.8 387.27,-84.8"/>
<text text-anchor="middle" x="344" y="-62.6" font-family="Times,serif" font-size="14.00">CoreModule</text>
</g>
<!-- CoreModule&#45;&gt;AppModule -->
<g id="edge3" class="edge">
<title>CoreModule&#45;&gt;AppModule</title>
<path fill="none" stroke="black" d="M344,-85.02C344,-105.17 344,-134.8 344,-134.8 344,-134.8 269.96,-134.8 269.96,-134.8"/>
<polygon fill="black" stroke="black" points="269.96,-131.3 259.96,-134.8 269.96,-138.3 269.96,-131.3"/>
</g>
<!-- HeaderComponent  -->
<g id="node8" class="node">
<title>HeaderComponent </title>
<polygon fill="#fb8072" stroke="black" points="675.75,-152.8 550.25,-152.8 550.25,-116.8 675.75,-116.8 675.75,-152.8"/>
<text text-anchor="middle" x="613" y="-130.6" font-family="Times,serif" font-size="14.00">HeaderComponent </text>
</g>
<!-- CoreModule&#45;&gt;HeaderComponent  -->
<g id="edge7" class="edge">
<title>CoreModule&#45;&gt;HeaderComponent </title>
<path fill="none" stroke="black" stroke-dasharray="5,2" d="M387.52,-70.8C463.65,-70.8 613,-70.8 613,-70.8 613,-70.8 613,-106.63 613,-106.63"/>
<polygon fill="black" stroke="black" points="609.5,-106.63 613,-116.63 616.5,-106.63 609.5,-106.63"/>
</g>
<!-- UiModule  -->
<g id="node9" class="node">
<title>UiModule </title>
<polygon fill="#fb8072" stroke="black" points="532.55,-152.8 455.45,-152.8 455.45,-116.8 532.55,-116.8 532.55,-152.8"/>
<text text-anchor="middle" x="494" y="-130.6" font-family="Times,serif" font-size="14.00">UiModule </text>
</g>
<!-- CoreModule&#45;&gt;UiModule  -->
<g id="edge8" class="edge">
<title>CoreModule&#45;&gt;UiModule </title>
<path fill="none" stroke="black" stroke-dasharray="5,2" d="M387.39,-77.8C431.69,-77.8 494,-77.8 494,-77.8 494,-77.8 494,-106.76 494,-106.76"/>
<polygon fill="black" stroke="black" points="490.5,-106.76 494,-116.76 497.5,-106.76 490.5,-106.76"/>
</g>
<!-- HeaderComponent -->
<g id="node6" class="node">
<title>HeaderComponent</title>
<polygon fill="#ffffb3" stroke="black" points="943.75,-152.8 822.25,-152.8 822.25,-116.8 943.75,-116.8 943.75,-152.8"/>
<text text-anchor="middle" x="883" y="-130.6" font-family="Times,serif" font-size="14.00">HeaderComponent</text>
</g>
<!-- HeaderComponent&#45;&gt;CoreModule -->
<g id="edge5" class="edge">
<title>HeaderComponent&#45;&gt;CoreModule</title>
<path fill="none" stroke="black" d="M883,-116.71C883,-93.67 883,-56.8 883,-56.8 883,-56.8 397.65,-56.8 397.65,-56.8"/>
<polygon fill="black" stroke="black" points="397.65,-53.3 387.65,-56.8 397.65,-60.3 397.65,-53.3"/>
</g>
<!-- SharedModule -->
<g id="node7" class="node">
<title>SharedModule</title>
<polygon fill="#8dd3c7" stroke="black" points="798.43,-152.8 795.43,-156.8 774.43,-156.8 771.43,-152.8 699.57,-152.8 699.57,-116.8 798.43,-116.8 798.43,-152.8"/>
<text text-anchor="middle" x="749" y="-130.6" font-family="Times,serif" font-size="14.00">SharedModule</text>
</g>
<!-- SharedModule&#45;&gt;CoreModule -->
<g id="edge6" class="edge">
<title>SharedModule&#45;&gt;CoreModule</title>
<path fill="none" stroke="black" d="M749,-116.52C749,-95.48 749,-63.8 749,-63.8 749,-63.8 397.34,-63.8 397.34,-63.8"/>
<polygon fill="black" stroke="black" points="397.34,-60.3 387.34,-63.8 397.34,-67.3 397.34,-60.3"/>
</g>
<!-- BtnComponent  -->
<g id="node22" class="node">
<title>BtnComponent </title>
<polygon fill="#fb8072" stroke="black" points="928.56,-228.8 823.44,-228.8 823.44,-192.8 928.56,-192.8 928.56,-228.8"/>
<text text-anchor="middle" x="876" y="-206.6" font-family="Times,serif" font-size="14.00">BtnComponent </text>
</g>
<!-- SharedModule&#45;&gt;BtnComponent  -->
<g id="edge19" class="edge">
<title>SharedModule&#45;&gt;BtnComponent </title>
<path fill="none" stroke="black" stroke-dasharray="5,2" d="M798.27,-134.8C807.11,-134.8 813.57,-134.8 813.57,-134.8 813.57,-134.8 813.57,-210.8 813.57,-210.8 813.57,-210.8 814.55,-210.8 814.55,-210.8"/>
<polygon fill="black" stroke="black" points="813.33,-214.3 823.33,-210.8 813.33,-207.3 813.33,-214.3"/>
</g>
<!-- CardComponent  -->
<g id="node23" class="node">
<title>CardComponent </title>
<polygon fill="#fb8072" stroke="black" points="805.04,-228.8 692.96,-228.8 692.96,-192.8 805.04,-192.8 805.04,-228.8"/>
<text text-anchor="middle" x="749" y="-206.6" font-family="Times,serif" font-size="14.00">CardComponent </text>
</g>
<!-- SharedModule&#45;&gt;CardComponent  -->
<g id="edge20" class="edge">
<title>SharedModule&#45;&gt;CardComponent </title>
<path fill="none" stroke="black" stroke-dasharray="5,2" d="M724.39,-152.81C724.39,-152.81 724.39,-182.65 724.39,-182.65"/>
<polygon fill="black" stroke="black" points="720.89,-182.65 724.39,-192.65 727.89,-182.65 720.89,-182.65"/>
</g>
<!-- ColumnComponent  -->
<g id="node24" class="node">
<title>ColumnComponent </title>
<polygon fill="#fb8072" stroke="black" points="674.95,-228.8 545.05,-228.8 545.05,-192.8 674.95,-192.8 674.95,-228.8"/>
<text text-anchor="middle" x="610" y="-206.6" font-family="Times,serif" font-size="14.00">ColumnComponent </text>
</g>
<!-- SharedModule&#45;&gt;ColumnComponent  -->
<g id="edge21" class="edge">
<title>SharedModule&#45;&gt;ColumnComponent </title>
<path fill="none" stroke="black" stroke-dasharray="5,2" d="M699.63,-134.8C690.78,-134.8 684.3,-134.8 684.3,-134.8 684.3,-134.8 684.3,-210.8 684.3,-210.8 684.3,-210.8 683.39,-210.8 683.39,-210.8"/>
<polygon fill="black" stroke="black" points="685.19,-207.3 675.19,-210.8 685.19,-214.3 685.19,-207.3"/>
</g>
<!-- StateDirective  -->
<g id="node25" class="node">
<title>StateDirective </title>
<polygon fill="#fb8072" stroke="black" points="526.58,-228.8 427.42,-228.8 427.42,-192.8 526.58,-192.8 526.58,-228.8"/>
<text text-anchor="middle" x="477" y="-206.6" font-family="Times,serif" font-size="14.00">StateDirective </text>
</g>
<!-- SharedModule&#45;&gt;StateDirective  -->
<g id="edge22" class="edge">
<title>SharedModule&#45;&gt;StateDirective </title>
<path fill="none" stroke="black" stroke-dasharray="5,2" d="M712.09,-152.84C712.09,-166.09 712.09,-181.8 712.09,-181.8 712.09,-181.8 491.13,-181.8 491.13,-181.8 491.13,-181.8 491.13,-182.88 491.13,-182.88"/>
<polygon fill="black" stroke="black" points="487.63,-182.6 491.13,-192.6 494.63,-182.6 487.63,-182.6"/>
</g>
<!-- TasksModule -->
<g id="node30" class="node">
<title>TasksModule</title>
<polygon fill="#8dd3c7" stroke="black" points="1947.21,-228.8 1944.21,-232.8 1923.21,-232.8 1920.21,-228.8 1854.79,-228.8 1854.79,-192.8 1947.21,-192.8 1947.21,-228.8"/>
<text text-anchor="middle" x="1901" y="-206.6" font-family="Times,serif" font-size="14.00">TasksModule</text>
</g>
<!-- SharedModule&#45;&gt;TasksModule -->
<g id="edge28" class="edge">
<title>SharedModule&#45;&gt;TasksModule</title>
<path fill="none" stroke="black" d="M736.7,-152.99C736.7,-156.34 736.7,-158.8 736.7,-158.8 736.7,-158.8 1885.63,-158.8 1885.63,-158.8 1885.63,-158.8 1885.63,-182.61 1885.63,-182.61"/>
<polygon fill="black" stroke="black" points="1882.13,-182.61 1885.63,-192.61 1889.13,-182.61 1882.13,-182.61"/>
</g>
<!-- IconChevronDownComponent -->
<g id="node10" class="node">
<title>IconChevronDownComponent</title>
<polygon fill="#ffffb3" stroke="black" points="2691.14,-84.8 2502.86,-84.8 2502.86,-48.8 2691.14,-48.8 2691.14,-84.8"/>
<text text-anchor="middle" x="2597" y="-62.6" font-family="Times,serif" font-size="14.00">IconChevronDownComponent</text>
</g>
<!-- IconsModule -->
<g id="node12" class="node">
<title>IconsModule</title>
<polygon fill="#8dd3c7" stroke="black" points="2465.88,-152.8 2462.88,-156.8 2441.88,-156.8 2438.88,-152.8 2376.12,-152.8 2376.12,-116.8 2465.88,-116.8 2465.88,-152.8"/>
<text text-anchor="middle" x="2421" y="-130.6" font-family="Times,serif" font-size="14.00">IconsModule</text>
</g>
<!-- IconChevronDownComponent&#45;&gt;IconsModule -->
<g id="edge9" class="edge">
<title>IconChevronDownComponent&#45;&gt;IconsModule</title>
<path fill="none" stroke="black" d="M2629.52,-85.07C2629.52,-103.36 2629.52,-128.8 2629.52,-128.8 2629.52,-128.8 2475.99,-128.8 2475.99,-128.8"/>
<polygon fill="black" stroke="black" points="2475.99,-125.3 2465.99,-128.8 2475.99,-132.3 2475.99,-125.3"/>
</g>
<!-- IconEditComponent -->
<g id="node11" class="node">
<title>IconEditComponent</title>
<polygon fill="#ffffb3" stroke="black" points="2484.54,-84.8 2355.46,-84.8 2355.46,-48.8 2484.54,-48.8 2484.54,-84.8"/>
<text text-anchor="middle" x="2420" y="-62.6" font-family="Times,serif" font-size="14.00">IconEditComponent</text>
</g>
<!-- IconEditComponent&#45;&gt;IconsModule -->
<g id="edge10" class="edge">
<title>IconEditComponent&#45;&gt;IconsModule</title>
<path fill="none" stroke="black" d="M2421,-85.02C2421,-85.02 2421,-106.53 2421,-106.53"/>
<polygon fill="black" stroke="black" points="2417.5,-106.53 2421,-116.53 2424.5,-106.53 2417.5,-106.53"/>
</g>
<!-- IconChevronDownComponent  -->
<g id="node13" class="node">
<title>IconChevronDownComponent </title>
<polygon fill="#fb8072" stroke="black" points="2698.14,-228.8 2505.86,-228.8 2505.86,-192.8 2698.14,-192.8 2698.14,-228.8"/>
<text text-anchor="middle" x="2602" y="-206.6" font-family="Times,serif" font-size="14.00">IconChevronDownComponent </text>
</g>
<!-- IconsModule&#45;&gt;IconChevronDownComponent  -->
<g id="edge11" class="edge">
<title>IconsModule&#45;&gt;IconChevronDownComponent </title>
<path fill="none" stroke="black" stroke-dasharray="5,2" d="M2466.22,-140.8C2509.33,-140.8 2567.73,-140.8 2567.73,-140.8 2567.73,-140.8 2567.73,-182.77 2567.73,-182.77"/>
<polygon fill="black" stroke="black" points="2564.23,-182.77 2567.73,-192.77 2571.23,-182.77 2564.23,-182.77"/>
</g>
<!-- IconEditComponent  -->
<g id="node14" class="node">
<title>IconEditComponent </title>
<polygon fill="#fb8072" stroke="black" points="2487.54,-228.8 2354.46,-228.8 2354.46,-192.8 2487.54,-192.8 2487.54,-228.8"/>
<text text-anchor="middle" x="2421" y="-206.6" font-family="Times,serif" font-size="14.00">IconEditComponent </text>
</g>
<!-- IconsModule&#45;&gt;IconEditComponent  -->
<g id="edge12" class="edge">
<title>IconsModule&#45;&gt;IconEditComponent </title>
<path fill="none" stroke="black" stroke-dasharray="5,2" d="M2421,-152.81C2421,-152.81 2421,-182.65 2421,-182.65"/>
<polygon fill="black" stroke="black" points="2417.5,-182.65 2421,-192.65 2424.5,-182.65 2417.5,-182.65"/>
</g>
<!-- IconsModule&#45;&gt;TasksModule -->
<g id="edge27" class="edge">
<title>IconsModule&#45;&gt;TasksModule</title>
<path fill="none" stroke="black" d="M2375.96,-134.8C2354.93,-134.8 2334.46,-134.8 2334.46,-134.8 2334.46,-134.8 2334.46,-214.8 2334.46,-214.8 2334.46,-214.8 1957.39,-214.8 1957.39,-214.8"/>
<polygon fill="black" stroke="black" points="1957.39,-211.3 1947.39,-214.8 1957.39,-218.3 1957.39,-211.3"/>
</g>
<!-- PageNotFoundComponent -->
<g id="node15" class="node">
<title>PageNotFoundComponent</title>
<polygon fill="#ffffb3" stroke="black" points="3115.83,-84.8 2950.17,-84.8 2950.17,-48.8 3115.83,-48.8 3115.83,-84.8"/>
<text text-anchor="middle" x="3033" y="-62.6" font-family="Times,serif" font-size="14.00">PageNotFoundComponent</text>
</g>
<!-- PageNotFoundModule -->
<g id="node16" class="node">
<title>PageNotFoundModule</title>
<polygon fill="#8dd3c7" stroke="black" points="3003.55,-152.8 3000.55,-156.8 2979.55,-156.8 2976.55,-152.8 2860.45,-152.8 2860.45,-116.8 3003.55,-116.8 3003.55,-152.8"/>
<text text-anchor="middle" x="2932" y="-130.6" font-family="Times,serif" font-size="14.00">PageNotFoundModule</text>
</g>
<!-- PageNotFoundComponent&#45;&gt;PageNotFoundModule -->
<g id="edge13" class="edge">
<title>PageNotFoundComponent&#45;&gt;PageNotFoundModule</title>
<path fill="none" stroke="black" d="M2977.06,-85.02C2977.06,-85.02 2977.06,-106.53 2977.06,-106.53"/>
<polygon fill="black" stroke="black" points="2973.56,-106.53 2977.06,-116.53 2980.56,-106.53 2973.56,-106.53"/>
</g>
<!-- PageNotFoundRoutingModule -->
<g id="node17" class="node">
<title>PageNotFoundRoutingModule</title>
<polygon fill="#8dd3c7" stroke="black" points="2926.17,-84.8 2923.17,-88.8 2902.17,-88.8 2899.17,-84.8 2737.83,-84.8 2737.83,-48.8 2926.17,-48.8 2926.17,-84.8"/>
<text text-anchor="middle" x="2832" y="-62.6" font-family="Times,serif" font-size="14.00">PageNotFoundRoutingModule</text>
</g>
<!-- PageNotFoundRoutingModule&#45;&gt;PageNotFoundModule -->
<g id="edge14" class="edge">
<title>PageNotFoundRoutingModule&#45;&gt;PageNotFoundModule</title>
<path fill="none" stroke="black" d="M2893.28,-85.02C2893.28,-85.02 2893.28,-106.53 2893.28,-106.53"/>
<polygon fill="black" stroke="black" points="2889.78,-106.53 2893.28,-116.53 2896.78,-106.53 2889.78,-106.53"/>
</g>
<!-- BtnComponent -->
<g id="node18" class="node">
<title>BtnComponent</title>
<polygon fill="#ffffb3" stroke="black" points="1438.56,-228.8 1337.44,-228.8 1337.44,-192.8 1438.56,-192.8 1438.56,-228.8"/>
<text text-anchor="middle" x="1388" y="-206.6" font-family="Times,serif" font-size="14.00">BtnComponent</text>
</g>
<!-- BtnComponent&#45;&gt;SharedModule -->
<g id="edge15" class="edge">
<title>BtnComponent&#45;&gt;SharedModule</title>
<path fill="none" stroke="black" d="M1388,-192.62C1388,-179.76 1388,-164.8 1388,-164.8 1388,-164.8 785.91,-164.8 785.91,-164.8 785.91,-164.8 785.91,-162.94 785.91,-162.94"/>
<polygon fill="black" stroke="black" points="789.41,-162.94 785.91,-152.94 782.41,-162.94 789.41,-162.94"/>
</g>
<!-- CardComponent -->
<g id="node19" class="node">
<title>CardComponent</title>
<polygon fill="#ffffb3" stroke="black" points="1319.05,-228.8 1210.95,-228.8 1210.95,-192.8 1319.05,-192.8 1319.05,-228.8"/>
<text text-anchor="middle" x="1265" y="-206.6" font-family="Times,serif" font-size="14.00">CardComponent</text>
</g>
<!-- CardComponent&#45;&gt;SharedModule -->
<g id="edge16" class="edge">
<title>CardComponent&#45;&gt;SharedModule</title>
<path fill="none" stroke="black" d="M1265,-192.67C1265,-182.09 1265,-170.8 1265,-170.8 1265,-170.8 773.61,-170.8 773.61,-170.8 773.61,-170.8 773.61,-163.22 773.61,-163.22"/>
<polygon fill="black" stroke="black" points="777.11,-163.22 773.61,-153.22 770.11,-163.22 777.11,-163.22"/>
</g>
<!-- ColumnComponent -->
<g id="node20" class="node">
<title>ColumnComponent</title>
<polygon fill="#ffffb3" stroke="black" points="1193.45,-228.8 1066.55,-228.8 1066.55,-192.8 1193.45,-192.8 1193.45,-228.8"/>
<text text-anchor="middle" x="1130" y="-206.6" font-family="Times,serif" font-size="14.00">ColumnComponent</text>
</g>
<!-- ColumnComponent&#45;&gt;SharedModule -->
<g id="edge17" class="edge">
<title>ColumnComponent&#45;&gt;SharedModule</title>
<path fill="none" stroke="black" d="M1130,-192.48C1130,-184.01 1130,-175.8 1130,-175.8 1130,-175.8 761.3,-175.8 761.3,-175.8 761.3,-175.8 761.3,-162.9 761.3,-162.9"/>
<polygon fill="black" stroke="black" points="764.8,-162.9 761.3,-152.9 757.8,-162.9 764.8,-162.9"/>
</g>
<!-- StateDirective -->
<g id="node21" class="node">
<title>StateDirective</title>
<polygon fill="#ffffb3" stroke="black" points="1049.08,-228.8 952.92,-228.8 952.92,-192.8 1049.08,-192.8 1049.08,-228.8"/>
<text text-anchor="middle" x="1001" y="-206.6" font-family="Times,serif" font-size="14.00">StateDirective</text>
</g>
<!-- StateDirective&#45;&gt;SharedModule -->
<g id="edge18" class="edge">
<title>StateDirective&#45;&gt;SharedModule</title>
<path fill="none" stroke="black" d="M1001,-192.68C1001,-189.83 1001,-187.8 1001,-187.8 1001,-187.8 749,-187.8 749,-187.8 749,-187.8 749,-163.04 749,-163.04"/>
<polygon fill="black" stroke="black" points="752.5,-163.04 749,-153.04 745.5,-163.04 752.5,-163.04"/>
</g>
<!-- FormTaskComponent -->
<g id="node26" class="node">
<title>FormTaskComponent</title>
<polygon fill="#ffffb3" stroke="black" points="2314.38,-152.8 2175.62,-152.8 2175.62,-116.8 2314.38,-116.8 2314.38,-152.8"/>
<text text-anchor="middle" x="2245" y="-130.6" font-family="Times,serif" font-size="14.00">FormTaskComponent</text>
</g>
<!-- FormTaskComponent&#45;&gt;TasksModule -->
<g id="edge23" class="edge">
<title>FormTaskComponent&#45;&gt;TasksModule</title>
<path fill="none" stroke="black" d="M2208.38,-152.84C2208.38,-174.46 2208.38,-207.8 2208.38,-207.8 2208.38,-207.8 1957.35,-207.8 1957.35,-207.8"/>
<polygon fill="black" stroke="black" points="1957.35,-204.3 1947.35,-207.8 1957.35,-211.3 1957.35,-204.3"/>
</g>
<!-- PageAddTaskComponent -->
<g id="node27" class="node">
<title>PageAddTaskComponent</title>
<polygon fill="#ffffb3" stroke="black" points="2157.87,-152.8 1998.13,-152.8 1998.13,-116.8 2157.87,-116.8 2157.87,-152.8"/>
<text text-anchor="middle" x="2078" y="-130.6" font-family="Times,serif" font-size="14.00">PageAddTaskComponent</text>
</g>
<!-- PageAddTaskComponent&#45;&gt;TasksModule -->
<g id="edge24" class="edge">
<title>PageAddTaskComponent&#45;&gt;TasksModule</title>
<path fill="none" stroke="black" d="M2039.38,-152.83C2039.38,-172.38 2039.38,-200.8 2039.38,-200.8 2039.38,-200.8 1957.46,-200.8 1957.46,-200.8"/>
<polygon fill="black" stroke="black" points="1957.46,-197.3 1947.46,-200.8 1957.46,-204.3 1957.46,-197.3"/>
</g>
<!-- PageEditTaskComponent -->
<g id="node28" class="node">
<title>PageEditTaskComponent</title>
<polygon fill="#ffffb3" stroke="black" points="1980.59,-152.8 1821.41,-152.8 1821.41,-116.8 1980.59,-116.8 1980.59,-152.8"/>
<text text-anchor="middle" x="1901" y="-130.6" font-family="Times,serif" font-size="14.00">PageEditTaskComponent</text>
</g>
<!-- PageEditTaskComponent&#45;&gt;TasksModule -->
<g id="edge25" class="edge">
<title>PageEditTaskComponent&#45;&gt;TasksModule</title>
<path fill="none" stroke="black" d="M1916.37,-152.81C1916.37,-152.81 1916.37,-182.65 1916.37,-182.65"/>
<polygon fill="black" stroke="black" points="1912.87,-182.65 1916.37,-192.65 1919.87,-182.65 1912.87,-182.65"/>
</g>
<!-- PageListTasksComponent -->
<g id="node29" class="node">
<title>PageListTasksComponent</title>
<polygon fill="#ffffb3" stroke="black" points="1803.49,-152.8 1640.51,-152.8 1640.51,-116.8 1803.49,-116.8 1803.49,-152.8"/>
<text text-anchor="middle" x="1722" y="-130.6" font-family="Times,serif" font-size="14.00">PageListTasksComponent</text>
</g>
<!-- PageListTasksComponent&#45;&gt;TasksModule -->
<g id="edge26" class="edge">
<title>PageListTasksComponent&#45;&gt;TasksModule</title>
<path fill="none" stroke="black" d="M1770.1,-153.11C1770.1,-172.95 1770.1,-201.8 1770.1,-201.8 1770.1,-201.8 1844.85,-201.8 1844.85,-201.8"/>
<polygon fill="black" stroke="black" points="1844.85,-205.3 1854.85,-201.8 1844.85,-198.3 1844.85,-205.3"/>
</g>
<!-- FormTaskComponent  -->
<g id="node32" class="node">
<title>FormTaskComponent </title>
<polygon fill="#fb8072" stroke="black" points="2241.38,-296.8 2098.62,-296.8 2098.62,-260.8 2241.38,-260.8 2241.38,-296.8"/>
<text text-anchor="middle" x="2170" y="-274.6" font-family="Times,serif" font-size="14.00">FormTaskComponent </text>
</g>
<!-- TasksModule&#45;&gt;FormTaskComponent  -->
<g id="edge30" class="edge">
<title>TasksModule&#45;&gt;FormTaskComponent </title>
<path fill="none" stroke="black" stroke-dasharray="5,2" d="M1947.29,-221.8C2013.77,-221.8 2128.37,-221.8 2128.37,-221.8 2128.37,-221.8 2128.37,-250.76 2128.37,-250.76"/>
<polygon fill="black" stroke="black" points="2124.87,-250.76 2128.37,-260.76 2131.87,-250.76 2124.87,-250.76"/>
</g>
<!-- PageAddTaskComponent  -->
<g id="node33" class="node">
<title>PageAddTaskComponent </title>
<polygon fill="#fb8072" stroke="black" points="2080.87,-296.8 1917.13,-296.8 1917.13,-260.8 2080.87,-260.8 2080.87,-296.8"/>
<text text-anchor="middle" x="1999" y="-274.6" font-family="Times,serif" font-size="14.00">PageAddTaskComponent </text>
</g>
<!-- TasksModule&#45;&gt;PageAddTaskComponent  -->
<g id="edge31" class="edge">
<title>TasksModule&#45;&gt;PageAddTaskComponent </title>
<path fill="none" stroke="black" stroke-dasharray="5,2" d="M1932.21,-229.02C1932.21,-229.02 1932.21,-250.53 1932.21,-250.53"/>
<polygon fill="black" stroke="black" points="1928.71,-250.53 1932.21,-260.53 1935.71,-250.53 1928.71,-250.53"/>
</g>
<!-- PageEditTaskComponent  -->
<g id="node34" class="node">
<title>PageEditTaskComponent </title>
<polygon fill="#fb8072" stroke="black" points="1899.09,-296.8 1736.91,-296.8 1736.91,-260.8 1899.09,-260.8 1899.09,-296.8"/>
<text text-anchor="middle" x="1818" y="-274.6" font-family="Times,serif" font-size="14.00">PageEditTaskComponent </text>
</g>
<!-- TasksModule&#45;&gt;PageEditTaskComponent  -->
<g id="edge32" class="edge">
<title>TasksModule&#45;&gt;PageEditTaskComponent </title>
<path fill="none" stroke="black" stroke-dasharray="5,2" d="M1877.09,-229.02C1877.09,-229.02 1877.09,-250.53 1877.09,-250.53"/>
<polygon fill="black" stroke="black" points="1873.59,-250.53 1877.09,-260.53 1880.59,-250.53 1873.59,-250.53"/>
</g>
<!-- PageListTasksComponent  -->
<g id="node35" class="node">
<title>PageListTasksComponent </title>
<polygon fill="#fb8072" stroke="black" points="1718.49,-296.8 1551.51,-296.8 1551.51,-260.8 1718.49,-260.8 1718.49,-296.8"/>
<text text-anchor="middle" x="1635" y="-274.6" font-family="Times,serif" font-size="14.00">PageListTasksComponent </text>
</g>
<!-- TasksModule&#45;&gt;PageListTasksComponent  -->
<g id="edge33" class="edge">
<title>TasksModule&#45;&gt;PageListTasksComponent </title>
<path fill="none" stroke="black" stroke-dasharray="5,2" d="M1854.81,-219.8C1789.86,-219.8 1679.38,-219.8 1679.38,-219.8 1679.38,-219.8 1679.38,-250.78 1679.38,-250.78"/>
<polygon fill="black" stroke="black" points="1675.88,-250.78 1679.38,-260.78 1682.88,-250.78 1675.88,-250.78"/>
</g>
<!-- TasksRoutingModule -->
<g id="node31" class="node">
<title>TasksRoutingModule</title>
<polygon fill="#8dd3c7" stroke="black" points="1616.83,-152.8 1613.83,-156.8 1592.83,-156.8 1589.83,-152.8 1479.17,-152.8 1479.17,-116.8 1616.83,-116.8 1616.83,-152.8"/>
<text text-anchor="middle" x="1548" y="-130.6" font-family="Times,serif" font-size="14.00">TasksRoutingModule</text>
</g>
<!-- TasksRoutingModule&#45;&gt;TasksModule -->
<g id="edge29" class="edge">
<title>TasksRoutingModule&#45;&gt;TasksModule</title>
<path fill="none" stroke="black" d="M1584.21,-152.81C1584.21,-175.29 1584.21,-210.8 1584.21,-210.8 1584.21,-210.8 1844.6,-210.8 1844.6,-210.8"/>
<polygon fill="black" stroke="black" points="1844.6,-214.3 1854.6,-210.8 1844.6,-207.3 1844.6,-214.3"/>
</g>
<!-- UiComponent -->
<g id="node36" class="node">
<title>UiComponent</title>
<polygon fill="#ffffb3" stroke="black" points="3252.83,-84.8 3157.17,-84.8 3157.17,-48.8 3252.83,-48.8 3252.83,-84.8"/>
<text text-anchor="middle" x="3205" y="-62.6" font-family="Times,serif" font-size="14.00">UiComponent</text>
</g>
<!-- UiModule -->
<g id="node37" class="node">
<title>UiModule</title>
<polygon fill="#8dd3c7" stroke="black" points="3241.55,-152.8 3238.55,-156.8 3217.55,-156.8 3214.55,-152.8 3168.45,-152.8 3168.45,-116.8 3241.55,-116.8 3241.55,-152.8"/>
<text text-anchor="middle" x="3205" y="-130.6" font-family="Times,serif" font-size="14.00">UiModule</text>
</g>
<!-- UiComponent&#45;&gt;UiModule -->
<g id="edge34" class="edge">
<title>UiComponent&#45;&gt;UiModule</title>
<path fill="none" stroke="black" d="M3205,-85.02C3205,-85.02 3205,-106.53 3205,-106.53"/>
<polygon fill="black" stroke="black" points="3201.5,-106.53 3205,-116.53 3208.5,-106.53 3201.5,-106.53"/>
</g>
<!-- UiComponent  -->
<g id="node38" class="node">
<title>UiComponent </title>
<polygon fill="#fb8072" stroke="black" points="3254.33,-228.8 3155.67,-228.8 3155.67,-192.8 3254.33,-192.8 3254.33,-228.8"/>
<text text-anchor="middle" x="3205" y="-206.6" font-family="Times,serif" font-size="14.00">UiComponent </text>
</g>
<!-- UiModule&#45;&gt;UiComponent  -->
<g id="edge35" class="edge">
<title>UiModule&#45;&gt;UiComponent </title>
<path fill="none" stroke="black" stroke-dasharray="5,2" d="M3205,-152.81C3205,-152.81 3205,-182.65 3205,-182.65"/>
<polygon fill="black" stroke="black" points="3201.5,-182.65 3205,-192.65 3208.5,-182.65 3201.5,-182.65"/>
</g>
</g>
</svg>
